<?xml version="1.0" encoding="UTF-8"?>
<svg xmlns="http://www.w3.org/2000/svg" version="1.1" viewBox="0 0 95.3 91.5">
  <defs>
    <style>
      .cls-1 {
        fill: #fff;
      }
    </style>
  </defs>
  <!-- Generator: Adobe Illustrator 28.6.0, SVG Export Plug-In . SVG Version: 1.2.0 Build 709)  -->
  <g>
    <g id="Layer_1">
      <g>
        <path d="M52.2,62.2c1.9-.2,2.7-1.7,3.5-3.1v-1.7c.1-.1.3-.3.4-.4h1.3c0,1.7.2,3.3,2.4,3.6,1.2-.4,2.6-.9,2.8-2.7.5-.2.9-.5,1.4-.4,1,.6,1.8,1.4,2.8,1.9,1.1.5,2.1.6,3.1,0v-2.1c.3-.6.8-1,1.3-1.5h2.6c.6.2.9.9,1.7.8.3.6.2,1.4,1,1.7.6.3,1.1.7,1.8.9.7.1,1.4.3,2,.2.6,0,1,.6,1.6.4-2.1.9-4.1,1.5-6.1-.1-.7.9-1.2,2-2.4,2.4-.4.1-.8.2-1.2,0-.4-.1-.7-.3-1.1-.5-.2-.1-.3-.3-.5-.5-.3.2-.7.1-.8.5-.3,0-.6,0-.9,0-1.6.2-3-.4-4.2-1.4-.3-.2-.5-.3-.9-.3-1.2,2.2-4.7,3.9-7.4.6-.7,1-1.5,1.9-2.6,2.5h-2c-.3-.3-.7-.6-.9-1-.5-.7-.9-1.3-.9-2.2,0-.9,0-1.7,0-2.6,0-1.6.5-3.2,1.1-4.7.3-.8.6-1.7,1.3-2.4h.6q.1.1,0,1.1c-.1,0-.2-.2-.4-.3,0,.1-.2.3-.3.4-.6,1.1-.8,2.3-1.2,3.5-.3,1-.2,2-.5,3.1-.2.7.2,1.5.4,2.2,0,.2,0,.5,0,.7,0,0,0,0,0,0,.3.3.6.6,1,1ZM74.2,57h-2.2c-.4.3-.7.5-.9.7v1.8c.4.5.7.9,1,1.2h1.4c1-1.4,1.1-1.5.6-3.7Z"/>
        <path d="M29.2,39.8c.1-.4,0-.6.2-.7,1.4-1.6,2.4-3.4,3.5-5.2.6-.9.9-2,1.7-2.9.2-.2.3-.6.3-.8,0-.3.2-.5.3-.7,1-1.7,1.6-3.6,2.3-5.4.5-1.2.7-2.5,1.2-3.7.3-.6.2-1.2.4-1.8.3-1.4.5-2.7.7-4.2,0-.8.3-1.6.2-2.4-.2-1.5-.2-3-1-4.4-.8-1.3-1.9-2-3.2-2.4-.4-.1-.8-.3-1.3-.3-.7,0-1.4-.1-2.1,0-2,.4-4,.9-5.6,2.3-.7.6-1.5,1.1-2,2-.5.7-.9,1.6-1.6,2.2-.3.3-.2.6-.3.9-.3.7-.6,1.5-.9,2.2-.3.6.2,1.3-.4,1.7.2.9-.4,1.7-.3,2.6.2,1.2-.3,2.3-.3,3.4,0,.8.4,1.6.3,2.4,0,.8-.2,1.7,0,2.4.3,1,.2,1.9.2,2.9,0,.6.4,1,.3,1.6,0,.5,0,.9.2,1.5.3.6.2,1.3.3,2,0,.8.5,1.6.3,2.4.6.6,0,1.5.5,2.2.2.3,0,.8,0,1.3,0,.4.3.6.3,1,0,1.3.5,2.5.6,3.7.1,1.1.3,2.2.6,3.3.3,1.4.2,2.8.8,4.1,0,0,0,.2,0,.3-.2,1.3.5,2.5.3,3.7.6,1.8.2,3.7.3,5.6,0,1.3-.5,2.7-.3,4-.4.5-.3,1.1-.3,1.6,0,.6-.2,1.1-.3,1.6-.6,2-1,4.1-1.9,6.1-1.3,2.8-2.4,4.6-3.9,6.8-1,1.4-2.3,2.6-3.6,3.8-.8.8-1.9,1.2-2.9,1.6-.2,0-.3.2-.3.2h-2c.7-.6,1.5-.7,2.2-1,1.3-.6,2.5-1.5,3.5-2.5,1.2-1.1,2.3-2.2,3.2-3.5,1.1-1.7,2.1-3.3,2.8-5.2.5-1.3,1.1-2.6,1.5-3.9.3-1.1.9-2.2.7-3.4,0-.4.4-.7.3-1-.2-.5.3-.7.3-1.2,0-.4,0-.9,0-1.3.5-2,.1-4,.3-6,0-.8-.4-1.4-.3-2.2,0-.7.3-1.4-.3-2,.2-.9-.2-1.7-.3-2.6,0-.6.2-1.2-.2-1.8-.3-.5,0-1-.3-1.6-.3-.5-.2-1.3-.3-2-.2-1.3-.5-2.7-.7-4-.2-1.3-.2-2.6-.8-3.8.2-.9-.5-1.7-.3-2.6,0-.5-.4-.7-.3-1.2,0-.4.2-.8-.2-1.2,0,0,0-.4,0-.5,0-.7,0-1.3-.3-2-.2-.6.1-1.3-.3-1.9,0,0,0-.2,0-.3,0-1.7-.4-3.4-.3-5.1.1-1.7,0-3.5,0-5.3,0-1.1.2-2.2.4-3.3.2-1,.6-2.1.9-3.2.7-2,1.7-3.8,3.3-5.2,1.6-1.5,3.5-2.6,5.7-3.1,1.4-.3,2.8-.2,4.2-.2,1.1,0,2.1.6,3,1.3.8.6,1.3,1.6,1.7,2.6.4,1.1.6,2.2.5,3.3,0,.8,0,1.5,0,2.3.1,1.1-.2,2.2-.4,3.3-.2,1-.4,2-.7,3-.2.9-.5,1.8-.7,2.7-.3,1.2-.7,2.3-1.2,3.5-.8,1.7-1.5,3.6-2.4,5.2-1.4,2.6-3,5-4.6,7.5-.3.4-.6.7-1.1,1.1Z"/>
        <path d="M41.5,64c-.7.3-1.4-.2-1.9.4-1.1-.3-2.1-.8-2.8-1.7-.8,1.7-2.1,2.3-4.1,1.9-.2,0-.5-.4-.8-.6-1.6-1.2-2.4-3-2-4.9.3-1.8,1.4-2.9,3.3-2.9.2,0,.4,0,.5,0,.6.1.9.8,1.5.9.2.4.4.9.4,1.5.5-.6,1-.3,1.5-.4.2.2.1.6.4.7v1.9c.7,1.1,1.9,1.7,2.9,2.4.2.1.4,0,.5.1.4,0,.6.3.6.8ZM34.3,63.2c.4-.4.8-.7,1.1-1.1.4-.5.8-1.1.3-1.7-.2-.3-.1-.5-.1-.8,0-1.2-.5-2-1.6-2.6q-1.7,0-3,1.3c0,.7-.7,1.5,0,2.2,0,.9.6,1.5,1.1,2.1.6.6,1.3.8,2.2.7Z"/>
        <path d="M47.7,60.5c.3.9-.3,1.6-.6,2.3-.2.5-.8.8-1.3,1-1.8.6-2.9.6-4.6-1.5q0-1.2.7-2.2c.2,1.4,1.2,1.9,2.4,2.3.5-.3,1.1-.2,1.7-.8,0-.1.2-.4.3-.7-1.4-1.3-3.3-1.5-4.6-2.9v-1.1c.8-1.2,2.1-1.6,3.4-1.8.7-.1,1.5.1,2.2.4.3.1.7,0,.9.3,0,.1,0,.3-.1.4-1.4-.4-2.9-.4-4.3,0-.3.3-.6.6-1,1,.4.8,1.2,1,1.9,1.2.9.3,1.6.9,2.4,1.3.3.2.2.6.5.8Z"/>
        <path d="M62.8,55c-.4-.4-.7-.7-1.1-1,.2-.5-.4-.8-.3-1.3,0-.4,0-.8,0-1.3q.7-.5,1.9-.1c.2-.4.3-.7.5-1.1h1.3c0,1.2.2,2.3-.4,3.6-.5.5-1.3,1-2,1.2Z"/>
        <path d="M29.1,39.9c-.3.4-.5.3-.7.3.1-.4.4-.2.7-.3Z"/>
        <path d="M29.3,39.6c0,.2,0,.3-.3.3,0-.2,0-.3.3-.3Z"/>
        <path class="cls-1" d="M74.2,57c.4,2.2.4,2.2-.6,3.7h-1.4c-.3-.3-.6-.7-1-1.2v-1.8c.2-.2.5-.4.9-.7h2.2Z"/>
        <path class="cls-1" d="M34.3,63.2c-.8,0-1.6,0-2.2-.7-.6-.6-1.2-1.1-1.1-2.1-.7-.7,0-1.5,0-2.2q1.3-1.3,3-1.3c1,.6,1.5,1.4,1.6,2.6,0,.3,0,.5.1.8.4.6,0,1.2-.3,1.7-.3.4-.7.7-1.1,1.1Z"/>
      </g>
    </g>
  </g>
</svg>